<svg width="102" height="18" viewBox="0 0 102 18" fill="none" xmlns="http://www.w3.org/2000/svg">
<g clip-path="url(#clip0_5907_8359)">
<path d="M0.82842 13.7938C0.837283 13.7659 0.852934 13.7407 0.873894 13.7207C0.894854 13.7007 0.920429 13.6866 0.948203 13.6796C0.975977 13.6726 1.00503 13.673 1.03262 13.6807C1.0602 13.6885 1.08541 13.7033 1.10585 13.7238C1.47324 14.0996 2.39214 14.8468 3.99285 15.0032C5.15471 15.1138 6.46117 14.935 6.53432 14.1627C6.56794 13.8085 6.40737 13.4854 5.82223 13.3852C5.34303 13.2988 3.8886 13.1606 2.89657 12.7028C1.71201 12.156 0.962934 11.2213 1.0201 10.0724C1.0201 9.23187 1.73134 6.88741 5.39768 6.53496C8.08795 6.27581 9.54406 7.27787 9.88875 7.55257C9.91276 7.572 9.93116 7.59779 9.94197 7.62717C9.95279 7.65654 9.9556 7.68839 9.95012 7.71929C9.83578 8.36026 9.65083 9.43056 9.5676 9.91517C9.56301 9.94288 9.55191 9.96901 9.53527 9.99132C9.51863 10.0136 9.49695 10.0314 9.4721 10.0432C9.44725 10.0549 9.41999 10.0602 9.39268 10.0587C9.36537 10.0572 9.33884 10.0488 9.31538 10.0344C8.77817 9.71303 7.2279 8.94162 5.09166 9.19559C4.86887 9.22237 3.85077 9.33294 3.83059 10.0897C3.82219 10.3704 4.01639 10.754 4.81422 10.9285C5.12024 10.995 6.15011 11.1246 6.37542 11.1539C7.92737 11.3587 9.48184 12.0558 9.48184 13.9312C9.48184 16.0139 7.60454 17.4064 5.39768 17.7321C2.29714 18.1994 0.542579 16.5071 0.1878 16.121C0.166909 16.0984 0.152363 16.0704 0.145703 16.04C0.139042 16.0096 0.140516 15.9779 0.149968 15.9482L0.82842 13.7938Z" fill="#17BBEF"/>
<path d="M86.4237 7.55178L86.4993 7.05767C86.5031 7.03284 86.5016 7.00746 86.4949 6.9833C86.4881 6.95915 86.4764 6.93679 86.4604 6.91779C86.4443 6.89879 86.4245 6.88361 86.4022 6.8733C86.3799 6.863 86.3557 6.85782 86.3312 6.85812H83.8713C83.8314 6.85749 83.7925 6.87148 83.7617 6.8976C83.7309 6.92371 83.7101 6.96025 83.7031 7.00065L81.9225 17.2493C81.9182 17.2743 81.9193 17.3001 81.9258 17.3247C81.9323 17.3493 81.9439 17.3721 81.96 17.3915C81.9761 17.4109 81.9961 17.4264 82.0187 17.4369C82.0413 17.4474 82.0659 17.4527 82.0907 17.4523L84.5682 17.4583C84.6082 17.4589 84.647 17.4449 84.6778 17.4188C84.7086 17.3927 84.7294 17.3562 84.7364 17.3158L85.6965 11.7872C85.9344 10.4474 86.9466 9.35203 88.4952 9.35203C88.9273 9.36601 89.3508 9.47967 89.7344 9.68461C89.7727 9.7064 89.8177 9.712 89.8599 9.70022C89.9021 9.68845 89.9382 9.66023 89.9605 9.62155L91.2056 7.44467C91.2281 7.40573 91.2347 7.3593 91.2242 7.31536C91.2137 7.27142 91.1868 7.23349 91.1493 7.2097C90.2144 6.63698 88.3077 5.91567 86.4237 7.55178Z" fill="#17BBEF"/>
<path d="M78.5797 12.1785C78.5797 12.7365 78.4187 13.282 78.1169 13.7459C77.8152 14.2099 77.3864 14.5715 76.8847 14.7851C76.383 14.9986 75.8309 15.0545 75.2983 14.9456C74.7656 14.8367 74.2764 14.568 73.8924 14.1735C73.5084 13.7789 73.2469 13.2762 73.1409 12.7289C73.035 12.1816 73.0894 11.6144 73.2972 11.0988C73.505 10.5833 73.8569 10.1427 74.3085 9.83268C74.76 9.52267 75.2909 9.3572 75.8339 9.3572C76.5619 9.35812 77.2598 9.65565 77.7745 10.1846C78.2892 10.7135 78.5788 11.4305 78.5797 12.1785V12.1785ZM75.8348 6.50134C74.7458 6.50117 73.6811 6.83284 72.7756 7.45441C71.87 8.07597 71.1642 8.95951 70.7474 9.99329C70.3306 11.0271 70.2215 12.1646 70.4339 13.2621C70.6463 14.3596 71.1707 15.3677 71.9407 16.1589C72.7108 16.9502 73.6919 17.489 74.76 17.7073C75.8281 17.9255 76.9352 17.8134 77.9413 17.3851C78.9474 16.9568 79.8073 16.2316 80.4122 15.3011C81.0171 14.3707 81.3399 13.2768 81.3397 12.1578C81.338 10.6582 80.7574 9.22048 79.7254 8.16009C78.6934 7.0997 77.2942 6.50317 75.8348 6.50134V6.50134Z" fill="#17BBEF"/>
<path d="M69.6346 7.76683C68.8262 7.09199 67.8481 6.66664 66.8138 6.54014C65.7795 6.41365 64.7315 6.59121 63.7915 7.05221C62.8515 7.5132 62.058 8.23872 61.5032 9.14452C60.9484 10.0503 60.6551 11.0992 60.6572 12.1695C60.6594 13.2397 60.957 14.2874 61.5154 15.1908C62.0738 16.0943 62.8702 16.8164 63.8121 17.2734C64.7539 17.7304 65.8026 17.9035 66.8364 17.7726C67.8702 17.6417 68.8466 17.2122 69.6523 16.5339C69.6827 16.5077 69.703 16.4713 69.7098 16.4312C69.7166 16.391 69.7093 16.3497 69.6893 16.3145L68.4492 14.1256C68.4358 14.102 68.4172 14.0821 68.3949 14.0674C68.3726 14.0527 68.3471 14.0436 68.3207 14.0409C68.2943 14.0382 68.2677 14.0419 68.243 14.0519C68.2183 14.0618 68.1962 14.0776 68.1785 14.0979C67.8048 14.5111 67.3192 14.7998 66.7842 14.9266C66.2493 15.0534 65.6896 15.0125 65.1775 14.8092C64.6654 14.6059 64.2244 14.2495 63.9114 13.7861C63.5984 13.3227 63.4277 12.7735 63.4215 12.2094C63.4153 11.6454 63.5738 11.0923 63.8765 10.6218C64.1792 10.1512 64.6123 9.78463 65.1197 9.56946C65.6272 9.35429 66.1858 9.30037 66.7234 9.41466C67.261 9.52895 67.7529 9.80621 68.1357 10.2106C68.1535 10.23 68.1755 10.2449 68.1999 10.2541C68.2243 10.2633 68.2504 10.2665 68.2762 10.2636C68.3021 10.2607 68.3269 10.2516 68.3487 10.2372C68.3706 10.2228 68.3889 10.2033 68.4022 10.1804L69.6683 7.98883C69.6894 7.95379 69.6975 7.91215 69.6914 7.87145C69.6852 7.83074 69.6651 7.79363 69.6346 7.76683V7.76683Z" fill="#17BBEF"/>
<path d="M19.2578 12.1785C19.2578 12.7365 19.0967 13.282 18.795 13.7459C18.4933 14.2099 18.0645 14.5715 17.5628 14.7851C17.0611 14.9986 16.509 15.0545 15.9763 14.9456C15.4437 14.8367 14.9545 14.568 14.5705 14.1735C14.1865 13.7789 13.925 13.2762 13.819 12.7289C13.7131 12.1816 13.7675 11.6144 13.9753 11.0988C14.1831 10.5833 14.535 10.1427 14.9866 9.83268C15.4381 9.52267 15.969 9.3572 16.512 9.3572C17.24 9.35812 17.9378 9.65565 18.4526 10.1846C18.9673 10.7135 19.2569 11.4305 19.2578 12.1785V12.1785ZM16.512 6.50134C15.423 6.50117 14.3584 6.83284 13.4528 7.45441C12.5473 8.07597 11.8415 8.95951 11.4246 9.99329C11.0078 11.0271 10.8987 12.1646 11.1111 13.2621C11.3235 14.3596 11.8479 15.3677 12.618 16.1589C13.388 16.9502 14.3692 17.489 15.4373 17.7073C16.5054 17.9255 17.6125 17.8134 18.6185 17.3851C19.6246 16.9568 20.4845 16.2316 21.0894 15.3011C21.6944 14.3707 22.0172 13.2768 22.017 12.1578C22.0152 10.6582 21.4346 9.22048 20.4027 8.16009C19.3707 7.0997 17.9715 6.50317 16.512 6.50134V6.50134Z" fill="#17BBEF"/>
<path d="M35.004 7.04299H32.566C32.526 7.04236 32.4872 7.05635 32.4564 7.08247C32.4256 7.10858 32.4048 7.14512 32.3978 7.18552C32.2566 8.04764 31.4999 12.5094 31.4999 12.5094C31.1469 14.5247 29.6437 15.0033 28.766 15.0033C27.2182 15.0033 25.6436 14.0928 26.0891 11.4546C26.2724 10.3671 26.6844 7.95953 26.8063 7.24772C26.8103 7.22277 26.809 7.1972 26.8024 7.17282C26.7958 7.14845 26.7841 7.12587 26.768 7.10667C26.752 7.08747 26.732 7.07212 26.7096 7.06172C26.6871 7.05131 26.6627 7.0461 26.6381 7.04644H24.2001C24.1601 7.04581 24.1213 7.05981 24.0905 7.08592C24.0597 7.11204 24.0389 7.14857 24.0319 7.18898L23.3005 11.4486C22.6044 15.4464 25.631 17.8185 28.7651 17.8185C31.283 17.8185 33.6581 16.1626 34.2213 12.8851C34.4592 11.4987 35.0259 8.10811 35.1688 7.24772C35.1734 7.2228 35.1725 7.19716 35.1664 7.1726C35.1602 7.14805 35.1489 7.12519 35.1331 7.10565C35.1174 7.08611 35.0977 7.07037 35.0754 7.05954C35.0531 7.04871 35.0287 7.04306 35.004 7.04299Z" fill="#17BBEF"/>
<path d="M35.0687 17.2777H37.5068C37.5467 17.2784 37.5856 17.2644 37.6164 17.2383C37.6472 17.2121 37.6679 17.1756 37.6749 17.1352C37.8229 16.2714 38.5921 11.7975 38.5921 11.7975C38.9427 9.78305 40.4459 9.30707 41.3236 9.30707C42.8722 9.30707 44.446 10.2184 44.0013 12.8557C43.8172 13.9433 43.3993 16.3612 43.2766 17.0747C43.2722 17.0998 43.2733 17.1256 43.2798 17.1502C43.2863 17.1747 43.298 17.1976 43.3141 17.217C43.3301 17.2364 43.3502 17.2519 43.3728 17.2624C43.3954 17.2729 43.4199 17.2781 43.4447 17.2777H45.8828C45.9227 17.2784 45.9616 17.2644 45.9924 17.2383C46.0232 17.2121 46.0439 17.1756 46.0509 17.1352L46.7899 12.8626C47.486 8.86392 44.4595 6.49268 41.3295 6.49268C38.8116 6.49268 36.4374 8.1478 35.8733 11.4252C35.6354 12.8074 35.0578 16.2126 34.9107 17.0756C34.9066 17.0998 34.9076 17.1245 34.9135 17.1483C34.9195 17.1721 34.9303 17.1942 34.9453 17.2133C34.9602 17.2325 34.979 17.2481 35.0003 17.2592C35.0215 17.2703 35.0449 17.2766 35.0687 17.2777V17.2777Z" fill="#17BBEF"/>
<path d="M57.5022 5.47854L57.0928 7.8066C56.1614 7.01295 55.0014 6.55679 53.7923 6.50867C52.5832 6.46055 51.3924 6.82317 50.404 7.54042C49.4157 8.25766 48.6849 9.28957 48.3247 10.4765C47.9645 11.6635 47.995 12.9393 48.4115 14.1066C48.828 15.2739 49.6072 16.2677 50.6287 16.9342C51.6501 17.6007 52.8568 17.9028 54.0622 17.7938C55.2675 17.6847 56.4043 17.1705 57.2966 16.3309C58.189 15.4912 58.7872 14.3727 58.9987 13.1486C60.0597 6.88315 60.1412 6.42272 60.3993 4.91446C60.404 4.88722 60.4022 4.85924 60.3942 4.83285C60.3862 4.80646 60.3721 4.78244 60.3532 4.7628C60.3342 4.74317 60.311 4.72849 60.2853 4.72C60.2597 4.71152 60.2325 4.70948 60.206 4.71404C59.3308 4.86659 58.4661 5.07724 57.6174 5.34465C57.5882 5.35406 57.562 5.37151 57.5417 5.39511C57.5214 5.41871 57.5077 5.44756 57.5022 5.47854V5.47854ZM53.5551 14.948C53.0121 14.948 52.4812 14.7825 52.0296 14.4725C51.5781 14.1625 51.2262 13.7219 51.0184 13.2063C50.8105 12.6908 50.7562 12.1235 50.8621 11.5763C50.9681 11.029 51.2296 10.5263 51.6136 10.1317C51.9976 9.73713 52.4868 9.46843 53.0194 9.35957C53.5521 9.25071 54.1041 9.30658 54.6059 9.52012C55.1076 9.73366 55.5364 10.0953 55.8381 10.5592C56.1398 11.0232 56.3009 11.5687 56.3009 12.1267C56.3 12.8746 56.0104 13.5917 55.4957 14.1206C54.9809 14.6495 54.2831 14.9471 53.5551 14.948V14.948Z" fill="#17BBEF"/>
<path d="M58.3843 0.890657C60.1576 0.415352 61.981 0.16499 63.8136 0.145162C63.8383 0.144769 63.8629 0.150013 63.8855 0.16052C63.9081 0.171026 63.9281 0.186535 63.9442 0.205936C63.9603 0.225336 63.972 0.248148 63.9784 0.272737C63.9849 0.297326 63.986 0.323083 63.9817 0.348165C63.8674 1.009 63.7127 1.90826 63.5882 2.63562C63.5815 2.67472 63.5618 2.71024 63.5326 2.7362C63.5034 2.76216 63.4663 2.77697 63.4277 2.77815C61.6146 2.82555 59.814 3.10175 58.0665 3.60053C58.0391 3.60859 58.0101 3.60936 57.9823 3.60276C57.9545 3.59616 57.9288 3.5824 57.9077 3.5628C57.8865 3.54319 57.8705 3.51837 57.8612 3.49066C57.8519 3.46296 57.8497 3.43329 57.8546 3.40444L58.2657 1.02369C58.2716 0.992447 58.2858 0.963491 58.3067 0.940016C58.3277 0.916542 58.3545 0.89946 58.3843 0.890657V0.890657Z" fill="#17BBEF"/>
<path d="M99.9177 13.3827H101.727C102.025 12.0133 101.817 10.5791 101.145 9.35789C100.472 8.13664 99.383 7.21517 98.0874 6.77188C96.7918 6.3286 95.3822 6.39504 94.1315 6.95834C92.8808 7.52164 91.8781 8.54173 91.3174 9.8211C90.7567 11.1005 90.6779 12.5481 91.0963 13.8837C91.5147 15.2194 92.4006 16.348 93.5823 17.051C94.7641 17.754 96.1577 17.9815 97.4933 17.6894C98.8289 17.3973 100.012 16.6063 100.812 15.4697C100.837 15.4329 100.847 15.3876 100.841 15.3432C100.834 15.2989 100.81 15.259 100.775 15.2322L99.119 13.9623C99.1011 13.9486 99.0807 13.9387 99.059 13.9332C99.0373 13.9277 99.0148 13.9267 98.9927 13.9302C98.9706 13.9337 98.9495 13.9418 98.9304 13.9538C98.9114 13.9658 98.8949 13.9817 98.8819 14.0003C98.5622 14.4646 98.1272 14.8324 97.6223 15.0654C97.1174 15.2985 96.561 15.3884 96.0108 15.3257C95.4607 15.263 94.9369 15.05 94.494 14.7089C94.0511 14.3679 93.7051 13.9111 93.4921 13.3861H99.9177V13.3827ZM96.3539 8.9719C96.9624 8.97254 97.5573 9.15685 98.0647 9.50194C98.5722 9.84702 98.9698 10.3377 99.2081 10.913H93.4989C93.7378 10.3379 94.1357 9.84757 94.6431 9.50255C95.1506 9.15754 95.7454 8.97304 96.3539 8.9719V8.9719Z" fill="#17BBEF"/>
</g>
<defs>
<clipPath id="clip0_5907_8359">
<rect width="102" height="18" fill="white"/>
</clipPath>
</defs>
</svg>
