<svg width="1024" height="1024" viewBox="0 0 1024 1024" fill="none" xmlns="http://www.w3.org/2000/svg">
  <path fill="white" d="M574,368.6L556.8,464C517.5,431.5 468.7,412.8 417.8,410.8C366.9,408.8 316.7,423.7 275.1,453.1C233.5,482.5 202.7,524.8 187.5,573.4C172.3,622.1 173.6,674.4 191.2,722.2C208.7,770.1 241.5,810.8 284.5,838.1C327.6,865.4 378.4,877.8 429.1,873.4C479.9,868.9 527.8,847.8 565.4,813.4C602.9,779 628.1,733.1 637,683C681.7,426.2 685.2,407.3 696,345.5C696.2,344.4 696.1,343.2 695.8,342.1C695.5,341.1 694.9,340.1 694.1,339.3C693.3,338.5 692.3,337.9 691.2,337.5C690.1,337.2 689,337.1 687.9,337.3C651,343.5 614.6,352.1 578.9,363.1C577.6,363.5 576.5,364.2 575.7,365.2C574.8,366.1 574.2,367.3 574,368.6ZM407.8,756.7C384.9,756.7 362.6,749.9 343.5,737.2C324.5,724.5 309.7,706.5 301,685.3C292.2,664.2 289.9,641 294.4,618.5C298.8,596.1 309.8,575.5 326,559.3C342.2,543.1 362.8,532.1 385.2,527.7C407.7,523.2 430.9,525.5 452,534.3C473.2,543 491.2,557.8 503.9,576.8C516.6,595.9 523.4,618.2 523.4,641.1C523.4,671.7 511.2,701.1 489.5,722.8C467.8,744.5 438.4,756.7 407.8,756.7Z"/>
  <path fill="white" d="M611.2,180.6C685.8,161.1 762.6,150.8 839.8,150C840.9,150 841.9,150.2 842.8,150.6C843.8,151.1 844.6,151.7 845.3,152.5C846,153.3 846.5,154.2 846.8,155.2C847,156.2 847.1,157.3 846.9,158.3C842.1,185.4 835.6,222.3 830.3,252.1C830,253.7 829.2,255.1 828,256.2C826.7,257.3 825.2,257.9 823.6,257.9C747.2,259.9 671.4,271.2 597.8,291.6C596.6,292 595.4,292 594.2,291.7C593.1,291.4 592,290.9 591.1,290.1C590.2,289.3 589.5,288.3 589.1,287.1C588.7,286 588.6,284.8 588.9,283.6L606.2,186C606.4,184.7 607,183.5 607.9,182.6C608.8,181.6 609.9,180.9 611.2,180.6Z"/>
</svg>
